<?xml version="1.0" encoding="utf-8"?>
<!-- Generator: Adobe Illustrator 21.0.0, SVG Export Plug-In . SVG Version: 6.00 Build 0)  -->
<svg version="1.1" id="Capa_1" xmlns="http://www.w3.org/2000/svg" xmlns:xlink="http://www.w3.org/1999/xlink" x="0px" y="0px"
	 viewBox="0 0 512 512" style="enable-background:new 0 0 512 512;" xml:space="preserve">
<style type="text/css">
	.st0{fill:#1574CA;}
</style>
<g id="Settings">
	<g>
		<path class="st0" d="M471.9,234.9c-0.7-6.2-7.9-10.8-14.1-10.8c-20.1,0-38-11.8-45.5-30.1c-7.6-18.7-2.7-40.5,12.3-54.3
			c4.7-4.3,5.3-11.5,1.3-16.6c-10.3-13.1-22-24.9-34.8-35.1c-5-4-12.3-3.5-16.7,1.3c-13.1,14.5-36.6,19.9-54.7,12.3
			c-18.9-7.9-30.8-27.1-29.6-47.7c0.4-6.5-4.3-12.1-10.8-12.8c-16.4-1.9-32.9-2-49.4-0.1c-6.4,0.7-11.1,6.2-10.9,12.6
			c0.7,20.4-11.3,39.2-30.1,46.8c-17.9,7.3-41.3,2-54.3-12.4c-4.3-4.7-11.5-5.3-16.6-1.4c-13.1,10.4-25,22.2-35.4,35.2
			c-4.1,5-3.5,12.3,1.3,16.7c15.3,13.8,20.2,35.8,12.3,54.8c-7.6,18-26.3,29.7-47.8,29.7c-7-0.2-11.9,4.4-12.7,10.8
			c-1.9,16.5-2,33.3-0.1,49.9c0.7,6.2,8.1,10.8,14.4,10.8c19.1-0.5,37.5,11.3,45.2,30.1c7.7,18.7,2.7,40.5-12.3,54.3
			c-4.7,4.3-5.3,11.5-1.3,16.5c10.2,13,21.9,24.8,34.7,35.1c5,4.1,12.3,3.5,16.7-1.3c13.1-14.5,36.6-19.9,54.7-12.3
			c18.9,7.9,30.9,27.1,29.7,47.6c-0.4,6.5,4.4,12.1,10.8,12.8c8.4,1,16.8,1.5,25.3,1.5c8,0,16.1-0.4,24.1-1.3
			c6.4-0.7,11.1-6.2,10.9-12.6c-0.7-20.3,11.3-39.2,30-46.8c18.1-7.4,41.3-2,54.4,12.4c4.3,4.7,11.5,5.3,16.6,1.4
			c13.1-10.3,25.1-22.1,35.5-35.1c4.1-5,3.5-12.3-1.3-16.7c-15.3-13.8-20.2-35.8-12.3-54.8c7.5-17.8,25.5-29.8,44.9-29.8l2.7,0.1
			c6.3,0.5,12.1-4.3,12.8-10.8C473.7,268.3,473.7,251.5,471.9,234.9z M254.1,332.9c-40.4,0-73.2-32.8-73.2-73.2s32.8-73.2,73.2-73.2
			s73.2,32.8,73.2,73.2S294.5,332.9,254.1,332.9z"/>
	</g>
</g>
</svg>
