<?xml version="1.0" encoding="utf-8"?>
<!-- Generator: Adobe Illustrator 21.0.0, SVG Export Plug-In . SVG Version: 6.00 Build 0)  -->
<svg version="1.1" id="Layer_1" xmlns="http://www.w3.org/2000/svg" xmlns:xlink="http://www.w3.org/1999/xlink" x="0px" y="0px"
	 viewBox="0 0 1000 1000" style="enable-background:new 0 0 1000 1000;" xml:space="preserve">
<style type="text/css">
	.st0{fill:#1574CA;}
</style>
<circle class="st0" cx="407.1" cy="375.7" r="172.8"/>
<path class="st0" d="M470.6,599.8H343.9c-6.6,0-12-5.4-12-12V461.1c0-6.6,5.4-12,12-12h126.7c6.6,0,12,5.4,12,12v126.7
	C482.6,594.4,477.2,599.8,470.6,599.8z"/>
<path class="st0" d="M380.4,572.4c0,0-146.3,13.7-243,81.9c-64,45.1-50.2,175.6-50.2,175.6h346.3l2-281.4L380.4,572.4z"/>
<path class="st0" d="M428,572.4c0,0,146.3,13.7,243,81.9c64,45.1,50.2,175.6,50.2,175.6H374.9l-2-281.4L428,572.4z"/>
<path class="st0" d="M647.4,367.9v-81c0-6.6,5.4-12,12-12h267.9c6.6,0,12,5.4,12,12v81c0,6.6-5.4,12-12,12H659.4
	C652.8,379.9,647.4,374.5,647.4,367.9z"/>
<path class="st0" d="M752.9,175.1h81c6.6,0,12,5.4,12,12V455c0,6.6-5.4,12-12,12h-81c-6.6,0-12-5.4-12-12V187.1
	C740.9,180.5,746.3,175.1,752.9,175.1z"/>
</svg>
